<svg class="icon" viewBox="0 0 1024 1024" xmlns="http://www.w3.org/2000/svg" width="200" height="200"><defs><style/></defs><path d="M916.224 256.576a35.008 35.008 0 00-35.712 34.816v626.88a35.008 35.008 0 01-35.712 34.88H179.2a35.008 35.008 0 01-35.712-34.88v-626.88a35.008 35.008 0 00-35.712-34.816 35.136 35.136 0 00-34.304 26.112c-.64 4.736-.64 13.44-.64 30.208v606.08c0 57.6 48 104.576 107.008 104.576h665.664c59.008 0 107.072-46.912 107.072-104.576V291.392a36.096 36.096 0 00-36.352-34.816z" fill="#D098FF"/><path d="M321.92 860.608c9.6 0 18.56-3.328 25.408-10.048a34.048 34.048 0 0010.24-24.768V314.88A35.008 35.008 0 00321.92 280a35.008 35.008 0 00-35.712 34.88v510.912c0 18.752 15.808 34.816 35.712 34.816zm665.6-766.976H718.528L634.24 11.2A38.4 38.4 0 00607.36.448H416A36.672 36.672 0 00389.248 11.2l-83.776 82.432H36.416a35.008 35.008 0 00-35.648 34.88c0 19.456 15.744 34.88 35.648 34.88h286.848c10.304 0 19.904-3.392 26.752-10.752l84.48-82.432h155.712l84.48 82.432a39.616 39.616 0 0026.688 10.752h286.848c19.904 0 35.712-15.424 35.712-34.88a35.648 35.648 0 00-36.352-34.88zM512 860.608c9.6 0 18.56-3.328 25.408-10.048a34.048 34.048 0 0010.24-24.768V314.88A35.008 35.008 0 00512 280a35.008 35.008 0 00-35.712 34.88v510.912c0 18.752 15.808 34.816 35.712 34.816zm190.08 0c9.6 0 18.56-3.328 25.408-10.048a34.048 34.048 0 0010.24-24.768V314.88A35.008 35.008 0 00702.08 280a35.008 35.008 0 00-35.648 34.88v510.912c0 18.752 15.744 34.816 35.648 34.816z" fill="#D098FF"/></svg>