<svg class="icon" viewBox="0 0 1024 1024" xmlns="http://www.w3.org/2000/svg" width="200" height="200"><defs><style/></defs><path d="M507.345 0h9.31v23.273h-9.31zm0 1000.727h9.31V1024h-9.31z" fill="#0BB78E"/><path d="M512 0C228.073 0 0 228.073 0 512s228.073 512 512 512 512-228.073 512-512S795.927 0 512 0zm0 1000.727c-269.964 0-488.727-218.763-488.727-488.727S242.036 23.273 512 23.273 1000.727 242.036 1000.727 512 781.964 1000.727 512 1000.727z" fill="#3C2DCB"/><path d="M707.49 377.018L381.674 702.836c-16.291 16.291-41.891 16.291-58.182 0s-16.291-41.89 0-55.854l325.818-325.818c16.291-16.291 41.891-16.291 58.182 0s16.29 41.89 0 55.854z" fill="#D098FF"/><path d="M325.818 377.018l325.818 325.818c16.291 16.291 41.891 16.291 58.182 0s16.291-41.89 0-55.854L384 321.164c-16.29-16.291-41.89-16.291-58.182 0s-16.29 41.89 0 55.854z" fill="#D098FF"/></svg>