<svg class="icon" viewBox="0 0 1145 1024" xmlns="http://www.w3.org/2000/svg" width="223.633" height="200"><defs><style/></defs><path d="M0 356.848a356.848 356.848 0 10713.697 0 356.848 356.848 0 10-713.697 0z"/><path d="M822.303 93.09c65.164 1.552 125.673 27.928 172.218 74.474 89.988 89.988 99.297 228.072 20.17 307.2l-442.182 440.63-440.63-442.182C52.752 394.085 62.06 256 152.049 166.012c44.993-46.545 107.054-72.921 172.218-74.473 51.2 0 99.297 18.619 134.981 54.303l60.51 60.51 54.303 54.303 54.303-54.303 60.509-60.51c34.133-34.133 83.782-54.303 133.43-52.751m0-77.576c-71.37-1.551-139.636 26.376-189.285 76.024l-60.509 60.51L512 91.538c-51.2-49.648-119.467-77.575-189.285-76.024-83.782 1.552-166.012 35.685-224.97 96.194-121.018 121.018-130.327 307.2-20.17 415.806L572.51 1024l496.485-496.485c108.606-110.157 100.848-296.34-20.17-415.806C989.867 51.2 907.636 17.067 822.303 15.515z" fill="#3C2DCB"/><path d="M690.424 558.545h-69.818v85.334c0 21.721-17.067 38.788-38.788 38.788S543.03 665.6 543.03 643.879v-85.334h-85.333c-21.721 0-38.788-17.066-38.788-38.787s17.067-38.788 38.788-38.788h85.333v-69.818c0-21.722 17.067-38.788 38.788-38.788s38.788 17.066 38.788 38.788v69.818h69.818c21.721 0 38.788 17.066 38.788 38.788s-17.067 38.787-38.788 38.787z" fill="#D098FF"/></svg>