<svg class="icon" viewBox="0 0 1024 1024" xmlns="http://www.w3.org/2000/svg" width="200" height="200"><defs><style/></defs><path d="M512 68.571a443.554 443.554 0 01172.571 852.035A443.554 443.554 0 01339.43 103.394 440.514 440.514 0 01512 68.571M512 0C229.234 0 0 229.234 0 512s229.234 512 512 512 512-229.234 512-512S794.766 0 512 0z" fill="#3C2DCB"/><path d="M253.76 300.091h251.429q34.285 0 34.285 34.286t-34.285 34.286H253.76q-34.286 0-34.286-34.286t34.286-34.286zM253.76 624.503h160q34.286 0 34.286 34.286 0 34.285-34.286 34.285h-160q-34.286 0-34.286-34.285 0-34.286 34.286-34.286zM253.76 462.297h205.714q34.286 0 34.286 34.286t-34.286 34.286H253.76q-34.286 0-34.286-34.286t34.286-34.286zM766.343 336.331a34.389 34.389 0 01-48.492 0l-22.994-23.051V720a108.949 108.949 0 11-70.434-104V231.234a34.389 34.389 0 0134.286-34.285h1.862a34.48 34.48 0 013.783.217 34.091 34.091 0 0121.223 9.863l80.812 80.811a34.389 34.389 0 01-.046 48.491z" fill="#D098FF"/></svg>