<svg class="icon" viewBox="0 0 1024 1024" xmlns="http://www.w3.org/2000/svg" width="200" height="200"><defs><style/></defs><path d="M512 59.392C262.144 59.392 59.392 262.144 59.392 512S262.144 964.608 512 964.608 964.608 761.856 964.608 512 761.856 59.392 512 59.392z" fill="#D098FF"/><path d="M640 509.952V78.848c-20.48-6.656-44.544-10.24-65.024-13.824v444.928H640z" fill="#8CF6FB"/><path d="M384 512a128 128 0 10256 0 128 128 0 10-256 0z" fill="#8CF6FB"/><path d="M-501.419 256c-80.896 37.376-146.944 102.912-184.32 184.32h-65.536c46.592-112.64 137.216-202.752 249.856-249.856V256zm143.36 577.536V768c77.824-40.448 143.36-105.984 184.32-184.32h65.536c-47.104 112.64-137.216 202.752-249.856 249.856z" fill="#928ffa"/></svg>