<svg class="icon" viewBox="0 0 1024 1024" xmlns="http://www.w3.org/2000/svg" width="200" height="200"><defs><style/></defs><path d="M102.07100000000003 314.027a314.027 314.027 0 10628.053 0 314.027 314.027 0 10-628.053 0z"/><path d="M655.031 793.259c64.17 45.056 102.4 117.418 102.4 196.608 0 19.114-15.019 34.133-34.133 34.133s-34.134-15.019-34.134-34.133c0-94.208-76.458-170.667-170.666-170.667S347.83 895.659 347.83 989.867c0 19.114-15.019 34.133-34.133 34.133s-34.134-15.019-34.134-34.133c0-76.459 36.864-148.822 98.304-192.512-212.992-73.728-326.314-307.2-252.586-521.558C199.01 62.805 431.116-50.517 645.474 23.211s327.68 307.2 253.952 520.192c-40.96 116.053-129.707 207.53-244.395 249.856zM511.671 68.267c-188.416 0-341.333 152.917-341.333 341.333S323.255 750.933 511.67 750.933 853.004 598.016 853.004 409.6 700.087 68.267 511.671 68.267z" fill="#3C2DCB"/><path d="M640.012 574.805c-75.093 47.787-170.666 46.422-245.76-2.73-16.384-10.923-20.48-32.768-10.922-49.152 9.557-16.384 28.672-21.846 45.056-12.288L429.75 512c53.248 34.133 121.515 35.499 174.763 1.365 15.018-9.557 35.498-5.461 45.056 10.923l1.365 1.365c9.557 17.75 4.096 39.595-10.923 49.152z" fill="#D098FF"/></svg>