<svg class="icon" viewBox="0 0 1024 1024" xmlns="http://www.w3.org/2000/svg" width="200" height="200"><defs><style/></defs><path d="M0 336.457a336.457 336.457 0 10672.914 0 336.457 336.457 0 10-672.914 0z"/><path d="M512 1024C229.669 1024 0 794.331 0 512S229.669 0 512 0s512 229.669 512 512-229.669 512-512 512zm0-950.857C269.166 73.143 73.143 269.166 73.143 512S269.166 950.857 512 950.857 950.857 754.834 950.857 512 754.834 73.143 512 73.143z" fill="#3C2DCB"/><path d="M636.343 702.171c-20.48 0-36.572-16.091-36.572-36.571V387.657c0-20.48 16.092-36.571 36.572-36.571s36.571 16.091 36.571 36.571V665.6c0 20.48-16.091 36.571-36.571 36.571zM450.56 690.47c-14.629 14.628-38.034 14.628-51.2 0s-14.629-38.035 0-51.2L512 526.629l-112.64-112.64c-14.629-14.629-14.629-38.035 0-51.2s38.034-14.629 51.2 0l137.509 137.508c14.628 14.629 14.628 38.034 0 51.2L450.56 690.47z" fill="#D098FF"/></svg>