<svg class="icon" viewBox="0 0 1024 1024" xmlns="http://www.w3.org/2000/svg" width="200" height="200"><defs><style/></defs><path d="M0 336.457a336.457 336.457 0 10672.914 0 336.457 336.457 0 10-672.914 0z"/><path d="M512 1024C229.669 1024 0 794.331 0 512S229.669 0 512 0s512 229.669 512 512-229.669 512-512 512zm0-950.857C269.166 73.143 73.143 269.166 73.143 512S269.166 950.857 512 950.857 950.857 754.834 950.857 512 754.834 73.143 512 73.143z" fill="#3C2DCB"/><path d="M462.263 434.469L588.069 512l-125.806 77.531V434.47M408.137 307.2c-17.554 0-32.183 14.629-32.183 32.183v345.234c0 17.554 14.629 32.183 32.183 32.183 5.852 0 11.703-1.463 17.554-4.389L706.56 539.794c14.629-8.777 20.48-29.257 10.24-43.885-2.926-4.389-5.851-8.778-10.24-10.24l-280.869-174.08c-5.851-2.926-11.702-4.389-17.554-4.389z" fill="#D098FF"/></svg>