<svg class="icon" viewBox="0 0 1024 1024" xmlns="http://www.w3.org/2000/svg" width="200" height="200"><defs><style/></defs><path d="M0 336.457a336.457 336.457 0 10672.914 0 336.457 336.457 0 10-672.914 0z"/><path d="M512 1024C229.669 1024 0 794.331 0 512S229.669 0 512 0s512 229.669 512 512-229.669 512-512 512zm0-950.857C269.166 73.143 73.143 269.166 73.143 512S269.166 950.857 512 950.857 950.857 754.834 950.857 512 754.834 73.143 512 73.143z" fill="#3C2DCB"/><path d="M430.08 702.171c20.48 0 35.109-16.091 35.109-36.571V387.657c0-19.017-14.629-36.571-35.109-36.571-19.017 0-36.571 14.628-36.571 35.108V665.6c1.462 20.48 17.554 36.571 36.571 36.571zm181.394-11.702c13.166 14.628 35.109 14.628 49.737 1.462l1.463-1.462c13.166-14.629 13.166-36.572 0-51.2L552.96 526.629l109.714-112.64c13.166-14.629 13.166-36.572 0-51.2s-35.108-14.629-49.737-1.463l-1.463 1.463-134.583 137.508c-13.165 14.629-13.165 36.572 0 51.2L611.474 690.47z" fill="#D098FF"/></svg>