<svg class="icon" viewBox="0 0 1024 1024" xmlns="http://www.w3.org/2000/svg" width="200" height="200"><defs><style/></defs><path d="M492.895 63.11c-155.51 0-281.577 126.066-281.577 281.577s126.067 281.578 281.577 281.578 281.578-126.067 281.578-281.578S648.406 63.109 492.895 63.109zm0 483.96c-111.773 0-202.383-90.61-202.383-202.383 0-111.775 90.61-202.383 202.383-202.383s202.384 90.61 202.384 202.383c0 111.772-90.61 202.383-202.384 202.383zm403.439 322.256c6.549 10.21-15.524 36.05-53.321 60.293-37.797 24.243-70.487 33.528-77.037 23.318l-154.154-240.34c-6.55-10.21 15.524-36.05 53.32-60.293 37.797-24.243 70.488-33.528 77.038-23.318l154.154 240.34z" fill="#D098FF"/><path d="M764.705 742.337c5.038 7.855-3.324 22.204-20.505 33.223s-33.71 12.636-38.748 4.782l-118.576-184.87c-5.038-7.855 3.324-22.205 20.505-33.224s33.71-12.636 38.748-4.781l118.576 184.87z" fill="#D098FF"/></svg>