<svg class="icon" viewBox="0 0 1034 1024" xmlns="http://www.w3.org/2000/svg" width="201.953" height="200"><defs><style/></defs><path d="M0 346.353a346.353 346.353 0 10692.706 0 346.353 346.353 0 10-692.706 0z"/><path d="M421.647 843.294C188.235 843.294 0 655.06 0 421.647S188.235 0 421.647 0s421.647 188.235 421.647 421.647S655.06 843.294 421.647 843.294zm0-768C230.4 75.294 75.294 230.4 75.294 421.647S230.4 768 421.647 768 768 612.894 768 421.647 612.894 75.294 421.647 75.294z" fill="#3C2DCB"/><path d="M1022.494 1011.953c-15.059 15.059-39.153 15.059-52.706 0l-212.33-212.33c-15.058-15.058-13.552-39.152 1.507-52.705 15.059-13.553 37.647-13.553 52.706 0L1024 959.248c13.553 13.552 13.553 37.646-1.506 52.705z" fill="#D098FF"/></svg>