<svg class="icon" viewBox="0 0 1024 1024" xmlns="http://www.w3.org/2000/svg" width="200" height="200"><defs><style/></defs><path d="M0 336.457a336.457 336.457 0 10672.914 0 336.457 336.457 0 10-672.914 0z"/><path d="M512 1024C229.669 1024 0 794.331 0 512S229.669 0 512 0s512 229.669 512 512-229.669 512-512 512zm0-950.857C269.166 73.143 73.143 269.166 73.143 512S269.166 950.857 512 950.857 950.857 754.834 950.857 512 754.834 73.143 512 73.143z" fill="#3C2DCB"/><path d="M624.64 487.131l-68.754-80.457v288.183c0 20.48-16.092 36.572-36.572 36.572s-36.571-16.092-36.571-36.572V406.674l-83.383 80.457c-14.629 14.629-38.034 14.629-51.2 0-14.629-13.165-14.629-35.108-1.463-49.737l1.463-1.463 138.971-133.12c7.315-7.314 19.018-11.702 29.258-10.24h2.925c16.092 0 30.72 10.24 35.109 26.332l122.88 118.491c14.628 13.166 14.628 35.109 1.463 49.737l-1.463 1.463c-14.629 13.166-38.034 13.166-52.663-1.463z" fill="#D098FF"/></svg>